<svg width="1024" height="1024" viewBox="0 0 1024 1024" fill="none" xmlns="http://www.w3.org/2000/svg">
<g filter="url(#filter0_d_59_33)">
<rect x="80" y="80" width="864" height="864" rx="144.32" fill="#FFF7ED"/>
<rect x="90" y="90" width="844" height="844" rx="134.32" stroke="#FDBA74" stroke-width="20"/>
<g clip-path="url(#clip0_59_33)">
<path d="M579.457 579.454L468.392 767.077C462.015 777.851 446.033 776.519 441.523 764.842L250.599 269.971C248.261 263.913 250.076 257.895 253.992 253.989L495.979 386.398L579.457 579.454Z" fill="#F08C00"/>
<path d="M767.086 468.392L579.452 579.45L468.393 767.084C462.015 777.857 446.026 776.526 441.526 764.845L430.279 735.708C431.441 734.694 432.476 733.469 433.331 732.011L544.389 544.387L732.013 433.329C733.471 432.474 734.696 431.439 735.71 430.277L764.847 441.524C776.528 446.025 777.859 462.014 767.086 468.392Z" fill="#F97316"/>
<path d="M767.082 468.39L579.444 579.451L253.982 253.99C257.903 250.069 263.92 248.268 269.98 250.599L764.837 441.522C776.522 446.025 777.858 462.022 767.082 468.39Z" fill="#FDBA74"/>
<path d="M544.389 544.388L732.013 433.33C733.47 432.475 734.696 431.44 735.709 430.278L764.847 441.525C776.528 446.025 777.858 462.013 767.086 468.392L579.451 579.45L544.389 544.388Z" fill="#FB923C"/>
</g>
</g>
<defs>
<filter id="filter0_d_59_33" x="60" y="60" width="904" height="904" filterUnits="userSpaceOnUse" color-interpolation-filters="sRGB">
<feFlood flood-opacity="0" result="BackgroundImageFix"/>
<feColorMatrix in="SourceAlpha" type="matrix" values="0 0 0 0 0 0 0 0 0 0 0 0 0 0 0 0 0 0 127 0" result="hardAlpha"/>
<feMorphology radius="20" operator="dilate" in="SourceAlpha" result="effect1_dropShadow_59_33"/>
<feOffset/>
<feComposite in2="hardAlpha" operator="out"/>
<feColorMatrix type="matrix" values="0 0 0 0 1 0 0 0 0 0.929412 0 0 0 0 0.835294 0 0 0 1 0"/>
<feBlend mode="normal" in2="BackgroundImageFix" result="effect1_dropShadow_59_33"/>
<feBlend mode="normal" in="SourceGraphic" in2="effect1_dropShadow_59_33" result="shape"/>
</filter>
<clipPath id="clip0_59_33">
<rect width="524.88" height="524.88" fill="white" transform="translate(249.561 249.56)"/>
</clipPath>
</defs>
</svg>
